<?xml version="1.0" standalone="no"?>
<!DOCTYPE svg PUBLIC "-//W3C//DTD SVG 20010904//EN"
 "http://www.w3.org/TR/2001/REC-SVG-20010904/DTD/svg10.dtd">
<svg version="1.0" xmlns="http://www.w3.org/2000/svg"
 width="1110.000000pt" height="1280.000000pt" viewBox="0 0 1110.000000 1280.000000"
 preserveAspectRatio="xMidYMid meet">
<metadata>
Created by potrace 1.15, written by Peter Selinger 2001-2017
</metadata>
<g transform="translate(0.000000,1280.000000) scale(0.100000,-0.100000)"
fill="#000000" stroke="none">
<path d="M8962 12790 c-371 -53 -729 -259 -948 -549 -116 -153 -231 -408 -265
-591 -21 -107 -16 -338 10 -457 58 -275 181 -510 373 -708 157 -164 304 -257
532 -340 165 -59 277 -78 461 -78 174 -1 287 15 427 59 244 77 418 182 583
349 225 230 364 527 406 871 12 105 3 196 -37 364 -44 181 -134 383 -225 503
-234 309 -527 490 -919 567 -75 15 -321 21 -398 10z"/>
<path d="M4695 11373 c-501 -15 -1095 -139 -1535 -321 -467 -194 -650 -284
-910 -446 -253 -158 -466 -316 -1021 -756 -284 -225 -364 -294 -535 -465 -220
-220 -328 -348 -469 -560 -89 -133 -235 -395 -220 -395 28 0 291 172 503 329
217 159 331 233 587 378 320 180 333 187 580 311 813 406 1544 631 2290 707
319 33 639 7 1115 -90 118 -24 274 -58 345 -75 177 -42 212 -49 345 -66 353
-44 584 28 752 236 77 96 148 279 163 420 6 62 4 69 -35 149 -58 119 -124 213
-210 301 -108 110 -135 127 -251 161 -467 134 -987 197 -1494 182z"/>
<path d="M9426 9215 c-110 -23 -190 -66 -267 -144 -222 -227 -271 -568 -146
-1021 42 -149 147 -498 214 -710 303 -959 611 -1766 1326 -3480 187 -448 351
-842 364 -875 29 -70 59 -123 122 -219 l46 -70 8 115 c10 133 2 570 -13 714
-6 55 -19 170 -30 255 -11 85 -29 234 -40 330 -10 96 -29 258 -40 360 -25 216
-96 796 -110 890 -5 36 -14 101 -20 145 -79 595 -199 1360 -289 1850 -16 88
-41 241 -56 340 -57 384 -137 728 -241 1026 -45 130 -74 184 -166 309 l-73
100 -90 29 c-192 62 -372 83 -499 56z"/>
<path d="M4650 6670 c-89 -11 -231 -66 -317 -123 -83 -55 -214 -190 -261 -270
-85 -142 -116 -264 -110 -428 5 -129 16 -166 88 -314 122 -247 328 -443 630
-599 122 -63 317 -144 433 -180 31 -10 57 -22 57 -28 0 -33 -117 -466 -182
-673 -107 -344 -182 -534 -313 -800 -210 -427 -384 -666 -768 -1054 -452 -456
-918 -828 -1652 -1318 -328 -219 -430 -270 -910 -462 -181 -72 -388 -160 -460
-196 -128 -63 -129 -64 -80 -60 1212 108 2315 431 3290 965 463 254 889 590
1459 1150 317 312 419 433 600 707 140 212 255 421 478 870 l210 423 36 -27
c164 -120 273 -297 337 -552 14 -55 44 -214 66 -353 48 -296 59 -508 47 -863
-10 -298 -46 -698 -93 -1030 -97 -682 -184 -1403 -173 -1435 2 -7 37 50 78
126 40 77 167 306 280 509 260 466 368 667 469 875 251 520 431 1110 510 1670
40 288 46 379 46 740 0 488 -17 630 -102 860 -159 431 -544 851 -1063 1160
-167 99 -175 106 -249 215 -74 108 -112 147 -186 190 -89 53 -121 58 -405 65
-254 6 -270 8 -385 38 -348 91 -711 155 -1075 191 -167 16 -260 19 -330 11z"/>
</g>
</svg>
